<svg xmlns="http://www.w3.org/2000/svg" id="logo" viewBox="0 0 1299.3 385.3" width="1299.3" height="385.3" preserveAspectRatio="xMidYMid meet"><g><g><path fill="#006086" d="M387.8,162.7c13.8,0,23.5,10,23.5,23.7s-9.7,23.7-23.5,23.7-23.5-10-23.5-23.7,9.7-23.7,23.5-23.7ZM387.8,169.9c-9.3,0-15.2,7.1-15.2,16.6s5.9,16.6,15.2,16.6,15.2-7.2,15.2-16.6-6-16.6-15.2-16.6Z"></path><path fill="#006086" d="M449.8,207.7l-22.8-31.8v29.8c0,2.2-1.8,4.1-4,4.1s-4.1-1.9-4.1-4.1v-37.4c0-2.9,2.3-5.3,5.3-5.3s3.3.8,4.3,2.2l22.2,30.8v-28.9c0-2.2,1.8-4.1,4-4.1s4.1,1.9,4.1,4.1v37.7c0,2.7-2.2,5-5,5s-3.1-.8-4-2.1h0Z"></path><path fill="#006086" d="M479.5,205.7v-35.2h-10.7c-1.9,0-3.6-1.6-3.6-3.5s1.7-3.6,3.6-3.6h29.5c1.9,0,3.6,1.6,3.6,3.6s-1.7,3.5-3.6,3.5h-10.7v35.2c0,2.2-1.8,4.1-4,4.1s-4.1-1.9-4.1-4.1h0Z"></path><path fill="#006086" d="M541.9,205.6c0,2.3-1.9,4.1-4.1,4.1s-3.2-1.1-3.8-2.6l-2.4-6.6h-22l-2.4,6.6c-.5,1.5-2.1,2.6-3.8,2.6s-4.1-1.9-4.1-4.1.2-1,.3-1.4l14.4-36.6c1-2.6,3.6-4.5,6.6-4.5s5.6,1.9,6.6,4.5l14.4,36.6c.1.4.3,1,.3,1.4h0ZM529.1,193.5l-8.5-23.2-8.5,23.2h16.9Z"></path><path fill="#006086" d="M584,206.1c0,1.6-1.5,3.6-3.8,3.6s-2.6-.7-3.4-1.7l-10.8-15.8h-9.4v13.5c0,2.2-1.8,4.1-4,4.1s-4.1-1.9-4.1-4.1v-38c0-2.8,1.5-4.3,4.3-4.3h15.9c9.1,0,15,5.9,15,14.4s-4.5,11.8-9.5,13.2l8.9,12.5c.4.6.8,1.2.8,2.5h0ZM556.7,185.1h11c4.5,0,7.8-2.9,7.8-7.3s-3.3-7.3-7.8-7.3h-11v14.6h0Z"></path><path fill="#006086" d="M591.9,205.7v-38.6c0-2.2,1.8-4.1,4.1-4.1s4,1.9,4,4.1v38.6c0,2.2-1.8,4.1-4,4.1s-4.1-1.9-4.1-4.1Z"></path><path fill="#006086" d="M631.1,162.7c13.8,0,23.5,10,23.5,23.7s-9.7,23.7-23.5,23.7-23.5-10-23.5-23.7,9.7-23.7,23.5-23.7ZM631.1,169.9c-9.3,0-15.2,7.1-15.2,16.6s5.9,16.6,15.2,16.6,15.2-7.2,15.2-16.6-6-16.6-15.2-16.6Z"></path></g><g><path fill="#006086" d="M677.5,202.3c0-2.1,1.7-3.9,3.8-3.9s1.7.3,2.3.8c3.2,2.3,7.1,4,11.9,4s9.2-3.2,9.2-6.3-4.9-5.4-10.5-6.8c-7.5-1.9-16.3-4.1-16.3-13.8s6.7-13.4,17.4-13.4,9.7,1.4,14.2,4.2c1,.6,1.7,1.8,1.7,3.1,0,2.1-1.7,3.8-3.8,3.8s-1.6-.3-2.1-.7c-3.3-2.2-7.2-3.2-10.7-3.2-5.4,0-8.5,2.3-8.5,5.7s4.7,4.7,10.1,6.1c7.6,1.9,16.6,4.3,16.6,14.2s-5.4,14.2-17.8,14.2-12.1-1.9-16.2-5c-.9-.7-1.5-1.8-1.5-3h0Z"></path><path fill="#006086" d="M741.7,162.9c13.8,0,23.5,10,23.5,23.7s-9.7,23.7-23.5,23.7-23.5-10-23.5-23.7,9.7-23.7,23.5-23.7ZM741.7,170c-9.3,0-15.2,7.1-15.2,16.6s5.9,16.6,15.2,16.6,15.2-7.2,15.2-16.6-6-16.6-15.2-16.6Z"></path><path fill="#006086" d="M770.9,186.6c0-14.1,10.5-23.7,23.7-23.7s12.5,2.8,16.1,6.8c.6.6,1,1.6,1,2.5,0,2.1-1.7,3.8-3.8,3.8s-2.2-.5-2.9-1.3c-2.5-2.8-6.1-4.7-10.4-4.7-8.7,0-15.5,6.9-15.5,16.6s6.7,16.6,15.5,16.6,7.9-1.8,10.5-4.7c.7-.8,1.7-1.3,2.8-1.3,2.1,0,3.8,1.7,3.8,3.8s-.3,1.9-1,2.5c-3.6,4-8.7,6.8-16.1,6.8-13.2,0-23.7-9.6-23.7-23.7h0Z"></path><path fill="#006086" d="M819.2,205.9v-38.6c0-2.2,1.8-4.1,4.1-4.1s4,1.9,4,4.1v38.6c0,2.2-1.8,4.1-4,4.1s-4.1-1.9-4.1-4.1Z"></path><path fill="#006086" d="M837,205.3v-37.4c0-2.8,1.5-4.3,4.3-4.3h24c1.9,0,3.6,1.6,3.6,3.6s-1.7,3.5-3.6,3.5h-20.2v11.9h19.7c1.9,0,3.6,1.6,3.6,3.5s-1.7,3.6-3.6,3.6h-19.7v12.7h20.2c1.9,0,3.6,1.6,3.6,3.5s-1.7,3.6-3.6,3.6h-24c-2.8,0-4.3-1.5-4.3-4.3h0Z"></path><path fill="#006086" d="M887.6,205.9v-35.2h-10.7c-1.9,0-3.6-1.6-3.6-3.5s1.7-3.6,3.6-3.6h29.5c1.9,0,3.6,1.6,3.6,3.6s-1.7,3.5-3.6,3.5h-10.7v35.2c0,2.2-1.8,4.1-4,4.1s-4.1-1.9-4.1-4.1h0Z"></path><path fill="#006086" d="M951.5,169.1l-14.1,21.3v15.4c0,2.2-1.8,4.1-4,4.1s-4.1-1.9-4.1-4.1v-15.4l-14.2-21.3c-.4-.6-.6-1.4-.6-2.1,0-2.1,1.7-3.9,3.9-3.9s2.5.7,3.2,1.8l11.8,18.3,11.6-18.3c.7-1,1.9-1.8,3.2-1.8,2.1,0,3.9,1.7,3.9,3.9s-.2,1.5-.6,2.1h0Z"></path></g><g><path fill="#006086" d="M998.5,162.9c13.8,0,23.5,10,23.5,23.7s-9.7,23.7-23.5,23.7-23.5-10-23.5-23.7,9.7-23.7,23.5-23.7ZM998.5,170c-9.3,0-15.2,7.1-15.2,16.6s5.9,16.6,15.2,16.6,15.2-7.2,15.2-16.6-6-16.6-15.2-16.6Z"></path><path fill="#006086" d="M1029.8,205.9v-38c0-2.8,1.5-4.3,4.3-4.3h24c1.9,0,3.6,1.6,3.6,3.6s-1.7,3.5-3.6,3.5h-20.2v11.9h19.7c1.9,0,3.6,1.6,3.6,3.5s-1.7,3.6-3.6,3.6h-19.7v16.2c0,2.2-1.8,4.1-4,4.1s-4.1-1.9-4.1-4.1h0Z"></path></g><g><path fill="#006086" d="M366.4,281.7v-38c0-2.8,1.5-4.3,4.3-4.3h15.9c9.6,0,15,6.6,15,14.4s-5.4,14.4-15,14.4h-12.1v13.5c0,2.2-1.8,4.1-4,4.1s-4.1-1.9-4.1-4.1h0ZM385.4,246.5h-11v14.6h11c4.5,0,7.8-2.9,7.8-7.3s-3.3-7.3-7.8-7.3h0Z"></path><path fill="#006086" d="M443.6,282.1c0,1.6-1.5,3.6-3.8,3.6s-2.6-.7-3.4-1.7l-10.8-15.8h-9.4v13.5c0,2.2-1.8,4.1-4,4.1s-4.1-1.9-4.1-4.1v-38c0-2.8,1.5-4.3,4.3-4.3h15.9c9.1,0,15,5.9,15,14.4s-4.5,11.8-9.5,13.2l8.9,12.5c.4.6.8,1.2.8,2.5h0ZM416.3,261.1h11c4.5,0,7.8-2.9,7.8-7.3s-3.3-7.3-7.8-7.3h-11v14.6Z"></path><path fill="#006086" d="M472.8,238.7c13.8,0,23.5,10,23.5,23.7s-9.7,23.7-23.5,23.7-23.5-10-23.5-23.7,9.7-23.7,23.5-23.7ZM472.8,245.9c-9.3,0-15.2,7.1-15.2,16.6s5.9,16.6,15.2,16.6,15.2-7.2,15.2-16.6-6-16.6-15.2-16.6h0Z"></path><path fill="#006086" d="M504,281.7v-38c0-2.8,1.5-4.3,4.3-4.3h24c1.9,0,3.6,1.6,3.6,3.6s-1.7,3.5-3.6,3.5h-20.2v11.9h19.8c1.9,0,3.6,1.6,3.6,3.5s-1.7,3.6-3.6,3.6h-19.8v16.2c0,2.2-1.8,4.1-4,4.1s-4.1-1.9-4.1-4.1h0Z"></path><path fill="#006086" d="M542.7,281.1v-37.4c0-2.8,1.5-4.3,4.3-4.3h24c1.9,0,3.6,1.6,3.6,3.6s-1.7,3.5-3.6,3.5h-20.2v11.9h19.7c1.9,0,3.6,1.6,3.6,3.5s-1.7,3.6-3.6,3.6h-19.7v12.7h20.2c1.9,0,3.6,1.6,3.6,3.5s-1.7,3.6-3.6,3.6h-24c-2.8,0-4.3-1.5-4.3-4.3h0Z"></path><path fill="#006086" d="M580.4,278.1c0-2.1,1.7-3.9,3.8-3.9s1.7.3,2.3.8c3.2,2.3,7.1,4,11.9,4s9.2-3.2,9.2-6.3-4.9-5.4-10.5-6.8c-7.5-1.9-16.3-4.1-16.3-13.8s6.7-13.4,17.4-13.4,9.7,1.4,14.2,4.2c1,.6,1.7,1.8,1.7,3.1,0,2.1-1.7,3.8-3.8,3.8s-1.6-.3-2.1-.7c-3.3-2.2-7.2-3.2-10.7-3.2-5.4,0-8.5,2.3-8.5,5.7s4.7,4.7,10.1,6.1c7.6,1.9,16.6,4.3,16.6,14.2s-5.4,14.2-17.8,14.2-12.1-1.9-16.2-5c-.9-.7-1.5-1.8-1.5-3h0Z"></path><path fill="#006086" d="M621.2,278.1c0-2.1,1.7-3.9,3.8-3.9s1.7.3,2.3.8c3.2,2.3,7.1,4,11.9,4s9.2-3.2,9.2-6.3-4.9-5.4-10.5-6.8c-7.5-1.9-16.3-4.1-16.3-13.8s6.7-13.4,17.4-13.4,9.7,1.4,14.2,4.2c1,.6,1.7,1.8,1.7,3.1,0,2.1-1.7,3.8-3.8,3.8s-1.6-.3-2.1-.7c-3.3-2.2-7.2-3.2-10.7-3.2-5.4,0-8.5,2.3-8.5,5.7s4.7,4.7,10.1,6.1c7.6,1.9,16.6,4.3,16.6,14.2s-5.4,14.2-17.8,14.2-12.1-1.9-16.2-5c-.9-.7-1.5-1.8-1.5-3h0Z"></path><path fill="#006086" d="M664.1,281.7v-38.6c0-2.2,1.8-4.1,4.1-4.1s4,1.9,4,4.1v38.6c0,2.2-1.8,4.1-4,4.1s-4.1-1.9-4.1-4.1Z"></path><path fill="#006086" d="M703.3,238.7c13.8,0,23.5,10,23.5,23.7s-9.7,23.7-23.5,23.7-23.5-10-23.5-23.7,9.7-23.7,23.5-23.7ZM703.3,245.9c-9.3,0-15.2,7.1-15.2,16.6s5.9,16.6,15.2,16.6,15.2-7.2,15.2-16.6-6-16.6-15.2-16.6h0Z"></path><path fill="#006086" d="M765.4,283.7l-22.8-31.8v29.8c0,2.2-1.8,4.1-4,4.1s-4.1-1.9-4.1-4.1v-37.4c0-2.9,2.3-5.3,5.3-5.3s3.3.8,4.3,2.2l22.2,30.8v-28.9c0-2.2,1.8-4.1,4-4.1s4.1,1.9,4.1,4.1v37.7c0,2.7-2.2,5-5,5s-3.1-.8-4-2.1h0Z"></path><path fill="#006086" d="M823.6,281.6c0,2.3-1.9,4.1-4.1,4.1s-3.2-1.1-3.8-2.6l-2.4-6.6h-22l-2.4,6.6c-.6,1.5-2.1,2.6-3.8,2.6s-4.1-1.9-4.1-4.1.2-1,.3-1.4l14.4-36.6c1-2.6,3.6-4.5,6.6-4.5s5.6,1.9,6.6,4.5l14.4,36.6c.1.4.3,1,.3,1.4h0ZM810.8,269.5l-8.5-23.2-8.5,23.2h16.9Z"></path><path fill="#006086" d="M830.4,281.1v-38c0-2.2,1.8-4.1,4.1-4.1s4,1.9,4,4.1v35.2h17.1c1.9,0,3.6,1.6,3.6,3.5s-1.7,3.6-3.6,3.6h-20.9c-2.8,0-4.3-1.5-4.3-4.3h0Z"></path></g><g><path fill="#006086" d="M882,280.8v-37.4c0-2.8,1.5-4.3,4.3-4.3h24c1.9,0,3.6,1.6,3.6,3.6s-1.7,3.5-3.6,3.5h-20.2v11.9h19.8c1.9,0,3.6,1.6,3.6,3.5s-1.7,3.6-3.6,3.6h-19.8v12.7h20.2c1.9,0,3.6,1.6,3.6,3.5s-1.7,3.6-3.6,3.6h-24c-2.8,0-4.3-1.5-4.3-4.3h0Z"></path><path fill="#006086" d="M952.5,283.4l-22.8-31.8v29.8c0,2.2-1.8,4.1-4,4.1s-4.1-1.9-4.1-4.1v-37.4c0-2.9,2.3-5.3,5.3-5.3s3.3.8,4.3,2.2l22.2,30.8v-28.9c0-2.2,1.8-4.1,4-4.1s4.1,1.9,4.1,4.1v37.7c0,2.7-2.2,5-5,5s-3.1-.8-4-2.1h0Z"></path><path fill="#006086" d="M1012.1,264.7v9.8c0,2.1-.5,3.8-2.2,5.2-4.3,3.8-9.9,6.2-16.7,6.2-13.3,0-24.1-9.4-24.1-23.8s10.8-23.7,24.1-23.7,11.9,2.5,15.6,6.2c.7.7,1.1,1.6,1.1,2.7,0,2.1-1.7,3.7-3.7,3.7s-2-.4-2.7-1.1c-2.6-2.6-6.2-4.3-10.3-4.3-9.1,0-15.8,6.9-15.8,16.6s6.7,16.7,15.8,16.7,8.8-2.2,10.9-4.1v-7.2h-10.5c-1.9,0-3.6-1.6-3.6-3.6s1.7-3.5,3.6-3.5h14.3c2.8,0,4.3,1.5,4.3,4.3h0Z"></path><path fill="#006086" d="M1020.5,281.4v-38.6c0-2.2,1.8-4.1,4.1-4.1s4,1.9,4,4.1v38.6c0,2.2-1.8,4.1-4,4.1s-4.1-1.9-4.1-4.1h0Z"></path><path fill="#006086" d="M1069.2,283.4l-22.8-31.8v29.8c0,2.2-1.8,4.1-4,4.1s-4.1-1.9-4.1-4.1v-37.4c0-2.9,2.3-5.3,5.3-5.3s3.3.8,4.3,2.2l22.2,30.8v-28.9c0-2.2,1.8-4.1,4-4.1s4.1,1.9,4.1,4.1v37.7c0,2.7-2.2,5-5,5s-3.1-.8-4-2.1h0Z"></path><path fill="#006086" d="M1087.9,280.8v-37.4c0-2.8,1.5-4.3,4.3-4.3h24c1.9,0,3.6,1.6,3.6,3.6s-1.7,3.5-3.6,3.5h-20.2v11.9h19.8c1.9,0,3.6,1.6,3.6,3.5s-1.7,3.6-3.6,3.6h-19.8v12.7h20.2c1.9,0,3.6,1.6,3.6,3.5s-1.7,3.6-3.6,3.6h-24c-2.8,0-4.3-1.5-4.3-4.3h0Z"></path><path fill="#006086" d="M1127.5,280.8v-37.4c0-2.8,1.5-4.3,4.3-4.3h24c1.9,0,3.6,1.6,3.6,3.6s-1.7,3.5-3.6,3.5h-20.2v11.9h19.8c1.9,0,3.6,1.6,3.6,3.5s-1.7,3.6-3.6,3.6h-19.8v12.7h20.2c1.9,0,3.6,1.6,3.6,3.5s-1.7,3.6-3.6,3.6h-24c-2.8,0-4.3-1.5-4.3-4.3h0Z"></path><path fill="#006086" d="M1202.6,281.8c0,1.6-1.5,3.6-3.8,3.6s-2.6-.7-3.4-1.7l-10.8-15.8h-9.4v13.5c0,2.2-1.8,4.1-4,4.1s-4.1-1.9-4.1-4.1v-38c0-2.8,1.5-4.3,4.3-4.3h15.9c9.1,0,15,5.9,15,14.4s-4.5,11.8-9.5,13.2l8.9,12.5c.4.6.8,1.2.8,2.5h0ZM1175.3,260.9h11c4.5,0,7.8-2.9,7.8-7.3s-3.3-7.3-7.8-7.3h-11v14.6Z"></path><path fill="#006086" d="M1208.4,277.8c0-2.1,1.7-3.9,3.8-3.9s1.7.3,2.3.8c3.2,2.3,7.1,4,11.9,4s9.2-3.2,9.2-6.3-4.9-5.4-10.5-6.8c-7.5-1.9-16.3-4.1-16.3-13.8s6.7-13.4,17.4-13.4,9.7,1.4,14.2,4.2c1,.6,1.7,1.8,1.7,3.1,0,2.1-1.7,3.8-3.8,3.8s-1.6-.3-2.1-.7c-3.3-2.2-7.2-3.2-10.7-3.2-5.4,0-8.5,2.3-8.5,5.7s4.7,4.7,10.1,6.1c7.6,1.9,16.6,4.3,16.6,14.2s-5.4,14.2-17.8,14.2-12.1-1.9-16.2-5c-.9-.7-1.5-1.8-1.5-3h0Z"></path></g></g><g><path fill="#006086" d="M252.4,314.4c-52.2,33.8-120.9,20.3-153.4-30-32.6-50.3-16.6-118.5,35.5-152.3,35.7-23.1,79.1-24.1,113.4-6.3l-.2-1.7c-39.6-25.5-92.1-27.2-134.2,0-57.3,37.1-73.8,113.6-36.7,171,37.1,57.3,113.6,73.8,171,36.7,35.9-23.2,55.7-61.8,56.5-101.5-3.3,32.8-21.3,64.4-51.9,84.1"></path><path fill="#e62128" d="M344.2,42.9s-87.8-21.8-102.5,77.1c-16.7,112.1-105.5,97.8-105.5,97.8,0,0,78.2,39.1,118.1-45.3,29.1-61.5,10.9-118.1,89.9-129.5"></path></g></svg>