<?xml version="1.0" encoding="UTF-8"?>
<!DOCTYPE svg PUBLIC "-//W3C//DTD SVG 1.1//EN"
  "http://www.w3.org/Graphics/SVG/1.1/DTD/svg11.dtd">
<!-- Created with Inkpad (http://www.taptrix.com/) --><svg xmlns:inkpad="http://taptrix.com/inkpad/svg_extensions" height="121pt" xmlns:xlink="http://www.w3.org/1999/xlink" xmlns="http://www.w3.org/2000/svg" width="701pt" version="1.1" viewBox="0,0,701,121">
<defs/>
<g id="g10" inkpad:layerName="g10">
<g opacity="1">
<path d="M-58+178.28M162.189+40.0573C172.867+29.3787+190.948+27.6413+203.364+40.0573C208.893+45.5868+211.623+52.8712+211.623+60.3795L211.623+60.9123C211.623+68.4201+208.893+75.7049+203.364+81.2331C190.948+93.6493+172.867+91.9117+162.189+81.2331C147.708+66.7545+141.601+60.6456+141.601+60.6456C141.601+60.6456+147.708+54.5379+162.189+40.0573ZM100.093+60.6445C100.093+60.6445+112.371+72.9227+141.479+102.031C162.944+123.496+199.289+126.988+224.247+102.031C235.363+90.9149+240.848+76.2727+240.848+61.1795L240.848+60.1097C240.848+45.016+235.363+30.3733+224.247+19.2587C199.289-5.69866+162.944-2.20666+141.479+19.2587C112.371+48.3664+100.093+60.6445+100.093+60.6445L100.093+60.6445" opacity="1" fill="#61c9b7"/>
<path d="M-58+178.28M141.601+60.6436C141.601+60.6436+147.708+66.7545+162.189+81.2331C172.867+91.9117+190.948+93.6493+203.364+81.2331C208.893+75.7049+211.623+68.4201+211.623+60.9123L211.623+60.6445L240.848+60.6445L240.848+61.1795C240.848+76.2727+235.363+90.9149+224.247+102.031C199.289+126.988+162.944+123.496+141.479+102.031C112.371+72.9227+100.095+60.6445+100.095+60.6445L141.601+60.6436" opacity="1" fill="#4c9c8f"/>
<path d="M-58+178.28M100.095+60.6445C100.095+60.6445+93.9867+66.7535+79.5067+81.2321C68.8281+91.9117+50.7473+93.6493+38.3312+81.2321C32.8027+75.704+30.0729+68.4185+30.0729+60.9107L30.0729+60.3784C30.0729+52.8701+32.8027+45.5863+38.3312+40.056C50.7473+27.64+68.8281+29.3773+79.5067+40.056C93.9867+54.5368+100.095+60.6445+100.095+60.6445ZM141.604+60.6445L141.604+60.6445C141.604+60.6445+129.325+48.3655+100.217+19.2573C78.752-2.20799+42.4063-5.69999+17.4484+19.2573C6.33386+30.3733+0.847865+45.0149+0.847865+60.1081L0.847865+61.1784C0.847865+76.2716+6.33387+90.9133+17.4484+102.029C42.4063+126.987+78.752+123.495+100.217+102.029C129.325+72.9212+141.604+60.6445+141.604+60.6445" opacity="1" fill="#ed1c24"/>
<path d="M-58+178.28M100.095+60.6445C100.095+60.6445+93.9867+66.7535+79.5067+81.2321C68.8281+91.9117+50.7473+93.6493+38.3323+81.2321C32.8027+75.704+30.0735+68.4185+30.0735+60.9107L30.0735+60.6436L0.847865+60.6436L0.847865+61.1784C0.847865+76.2716+6.33387+90.9133+17.4484+102.029C42.4063+126.987+78.752+123.495+100.217+102.029C129.325+72.9212+141.603+60.6445+141.603+60.6445L100.095+60.6445" opacity="1" fill="#c4161d"/>
<path d="M-58+178.28M141.603+60.644L141.603+60.644L100.095+60.644C100.096+60.6451+106.449+66.9993+120.848+81.3972C135.248+66.9983+141.601+60.6445+141.603+60.644" opacity="1" fill="#a61217"/>
<path d="M-58+178.28M486.329+25.1027C487.563+25.1027+488.364+24.5413+488.364+23.4213C488.364+22.3373+487.563+21.796+486.329+21.796L483.491+21.796L483.491+25.1027L486.329+25.1027ZM485.917+19.6853C487.207+19.6853+487.879+19.032+487.879+18.08C487.879+17.1827+487.207+16.548+485.917+16.548L483.491+16.548L483.491+19.6853L485.917+19.6853ZM480.689+14.288L486.105+14.288C489.261+14.288+490.719+15.7453+490.719+17.8C490.719+19.1627+489.972+20.0587+488.757+20.5827C490.195+21.0307+491.204+22.02+491.204+23.608C491.204+26.036+489.3+27.3613+486.367+27.3613L480.689+27.3613L480.689+14.288" opacity="1" fill="#918f90"/>
<path d="M-58+178.28M493.957+14.288L496.777+14.288L496.777+24.916L503.277+24.916L503.277+27.3613L493.957+27.3613L493.957+14.288" opacity="1" fill="#918f90"/>
<path d="M-58+178.28M511.556+25.1947C513.853+25.1947+515.459+23.4587+515.459+20.788C515.459+18.1733+513.871+16.436+511.556+16.436C509.257+16.436+507.671+18.1733+507.671+20.788C507.671+23.4587+509.277+25.1947+511.556+25.1947ZM511.556+14.0453C515.533+14.0453+518.335+16.8653+518.335+20.788C518.335+24.748+515.552+27.6053+511.556+27.6053C507.577+27.6053+504.776+24.748+504.776+20.788C504.776+16.8653+507.596+14.0453+511.556+14.0453" opacity="1" fill="#918f90"/>
<path d="M-58+178.28M527.184+25.1947C529.48+25.1947+531.085+23.4587+531.085+20.788C531.085+18.1733+529.499+16.436+527.184+16.436C524.885+16.436+523.299+18.1733+523.299+20.788C523.299+23.4587+524.905+25.1947+527.184+25.1947ZM527.184+14.0453C531.161+14.0453+533.963+16.8653+533.963+20.788C533.963+24.748+531.18+27.6053+527.184+27.6053C523.204+27.6053+520.404+24.748+520.404+20.788C520.404+16.8653+523.224+14.0453+527.184+14.0453" opacity="1" fill="#918f90"/>
<path d="M-58+178.28M541.144+25.064C543.891+25.064+545.272+23.44+545.272+20.788C545.272+18.2107+543.797+16.5853+541.144+16.5853L539.465+16.5853L539.465+25.064L541.144+25.064ZM536.644+14.288L540.94+14.288C545.609+14.288+548.131+16.6973+548.131+20.7693C548.131+24.9347+545.777+27.3613+540.94+27.3613L536.644+27.3613L536.644+14.288" opacity="1" fill="#918f90"/>
<path d="M-58+178.28M486.143+41.9973C487.655+41.9973+488.364+41.1747+488.364+40.0547C488.364+38.9533+487.655+38.1493+486.161+38.1493L483.509+38.1493L483.509+41.9973L486.143+41.9973ZM480.689+35.8893L486.161+35.8893C489.916+35.8893+491.204+37.944+491.204+40.036C491.204+42.1093+489.897+44.22+486.18+44.22L483.509+44.22L483.509+48.9639L480.689+48.9639L480.689+35.8893" opacity="1" fill="#918f90"/>
<path d="M-58+178.28M493.564+35.8893L496.384+35.8893L496.384+46.5169L502.883+46.5169L502.883+48.9639L493.564+48.9639L493.564+35.8893" opacity="1" fill="#918f90"/>
<path d="M-58+178.28M509.232+44.3507L512.78+44.3507L511.025+39.028L510.987+39.028L509.232+44.3507ZM509.4+35.8893L512.632+35.8893L517.337+48.9639L514.311+48.9639L513.509+46.5169L508.523+46.5169L507.719+48.9639L504.675+48.9639L509.4+35.8893" opacity="1" fill="#918f90"/>
<path d="M-58+178.28M520.324+45.5273C521.481+46.2373+522.845+46.7227+524.171+46.7227C525.572+46.7227+526.319+46.1436+526.319+45.3029C526.319+42.856+519.259+44.5+519.259+39.5507C519.259+37.4027+521.015+35.6467+524.059+35.6467C525.759+35.6467+527.291+36.0773+528.748+36.768L527.7+38.9907C526.543+38.4107+525.329+38.1307+524.171+38.1307C522.919+38.1307+522.173+38.728+522.173+39.5133C522.173+41.9227+529.233+40.2227+529.233+45.266C529.233+47.4696+527.552+49.2065+524.191+49.2065C522.229+49.2065+520.231+48.5336+518.979+47.7493L520.324+45.5273" opacity="1" fill="#918f90"/>
<path d="M-58+178.28M531.895+35.8893L534.733+35.8893L538.675+41.4733L542.635+35.8893L545.435+35.8893L545.435+48.9639L542.747+48.9639L542.747+39.924L538.675+45.5644L534.584+39.924L534.584+48.9639L531.895+48.9639L531.895+35.8893" opacity="1" fill="#918f90"/>
<path d="M-58+178.28M552.088+44.3507L555.637+44.3507L553.881+39.028L553.844+39.028L552.088+44.3507ZM552.256+35.8893L555.488+35.8893L560.195+48.9639L557.168+48.9639L556.365+46.5169L551.379+46.5169L550.576+48.9639L547.531+48.9639L552.256+35.8893" opacity="1" fill="#918f90"/>
<path d="M-58+178.28M481.473+67.1284C482.632+67.8379+483.995+68.3237+485.32+68.3237C486.721+68.3237+487.469+67.744+487.469+66.9045C487.469+64.4576+480.409+66.1008+480.409+61.1508C480.409+59.0035+482.164+57.2483+485.208+57.2483C486.909+57.2483+488.44+57.6779+489.897+58.3685L488.851+60.5915C487.693+60.0123+486.479+59.7321+485.32+59.7321C484.069+59.7321+483.323+60.3295+483.323+61.1139C483.323+63.5243+490.383+61.8237+490.383+66.8664C490.383+69.0712+488.701+70.8081+485.34+70.8081C483.379+70.8081+481.38+70.1347+480.129+69.3508L481.473+67.1284" opacity="1" fill="#918f90"/>
<path d="M-58+178.28M496.393+59.9936L492.08+59.9936L492.08+57.4909L503.528+57.4909L503.528+59.9936L499.213+59.9936L499.213+70.5644L496.393+70.5644L496.393+59.9936" opacity="1" fill="#918f90"/>
<path d="M-58+178.28M505.7+57.4909L515.225+57.4909L515.225+59.956L508.521+59.956L508.521+62.8327L514.497+62.8327L514.497+65.0175L508.521+65.0175L508.521+68.0997L515.3+68.0997L515.3+70.5644L505.7+70.5644L505.7+57.4909" opacity="1" fill="#918f90"/>
<path d="M-58+178.28M518.267+57.4909L521.105+57.4909L525.045+63.0748L529.005+57.4909L531.807+57.4909L531.807+70.5644L529.117+70.5644L529.117+61.5248L525.045+67.166L520.956+61.5248L520.956+70.5644L518.267+70.5644L518.267+57.4909" opacity="1" fill="#918f90"/>
<path d="M-58+178.28M546.232+57.2483C548.044+57.2483+549.613+57.8456+550.976+58.9289L549.425+60.8712C548.529+60.1425+547.559+59.6759+546.269+59.6759C543.861+59.6759+542.272+61.3565+542.272+63.954C542.272+66.6425+543.823+68.3795+546.269+68.3795C547.595+68.3795+548.66+67.894+549.52+67.0347L551.2+68.8273C549.8+70.1347+548.175+70.8081+546.139+70.8081C542.16+70.8081+539.416+67.9316+539.416+63.954C539.416+60.0868+542.236+57.2483+546.232+57.2483" opacity="1" fill="#918f90"/>
<path d="M-58+178.28M553.428+57.4909L562.953+57.4909L562.953+59.956L556.249+59.956L556.249+62.8327L562.225+62.8327L562.225+65.0175L556.249+65.0175L556.249+68.0997L563.028+68.0997L563.028+70.5644L553.428+70.5644L553.428+57.4909" opacity="1" fill="#918f90"/>
<path d="M-58+178.28M565.995+57.4909L568.815+57.4909L568.815+68.118L575.315+68.118L575.315+70.5644L565.995+70.5644L565.995+57.4909" opacity="1" fill="#918f90"/>
<path d="M-58+178.28M577.581+57.4909L580.401+57.4909L580.401+68.118L586.901+68.118L586.901+70.5644L577.581+70.5644L577.581+57.4909" opacity="1" fill="#918f90"/>
<path d="M-58+178.28M590.232+67.1284C591.389+67.8379+592.752+68.3237+594.08+68.3237C595.48+68.3237+596.227+67.744+596.227+66.9045C596.227+64.4576+589.167+66.1008+589.167+61.1508C589.167+59.0035+590.923+57.2483+593.968+57.2483C595.667+57.2483+597.197+57.6779+598.655+58.3685L597.609+60.5915C596.452+60.0123+595.237+59.7321+594.08+59.7321C592.828+59.7321+592.081+60.3295+592.081+61.1139C592.081+63.5243+599.14+61.8237+599.14+66.8664C599.14+69.0712+597.46+70.8081+594.097+70.8081C592.137+70.8081+590.139+70.1347+588.887+69.3508L590.232+67.1284" opacity="1" fill="#918f90"/>
<path d="M-58+178.28M486.965+89.9997C489.261+89.9997+490.867+88.2628+490.867+85.592C490.867+82.9773+489.28+81.2399+486.965+81.2399C484.667+81.2399+483.08+82.9773+483.08+85.592C483.08+88.2628+484.687+89.9997+486.965+89.9997ZM486.965+78.8493C490.943+78.8493+493.744+81.6696+493.744+85.592C493.744+89.5519+490.961+92.4092+486.965+92.4092C482.985+92.4092+480.185+89.5519+480.185+85.592C480.185+81.6696+483.005+78.8493+486.965+78.8493" opacity="1" fill="#918f90"/>
<path d="M-58+178.28M502.139+85.1997C503.635+85.1997+504.361+84.3784+504.361+83.2571C504.361+82.1373+503.615+81.3519+502.159+81.3519L499.245+81.3519L499.245+85.1997L502.139+85.1997ZM496.424+79.0936L502.177+79.0936C505.913+79.0936+507.2+81.1467+507.2+83.2388C507.2+84.7707+506.435+86.1707+504.809+86.8628L507.313+92.1664L504.269+92.1664L502.251+87.3107L499.245+87.3107L499.245+92.1664L496.424+92.1664L496.424+79.0936" opacity="1" fill="#918f90"/>
<path d="M-58+178.28M516.155+78.8493C518.097+78.8493+519.648+79.5227+520.973+80.4748L519.499+82.38C518.545+81.7081+517.481+81.2784+516.231+81.2784C513.784+81.2784+512.215+83.0707+512.215+85.5732C512.215+88.2816+513.708+89.9816+516.231+89.9816C517.108+89.9816+517.912+89.7945+518.509+89.4399L518.509+86.8253L515.539+86.8253L515.539+84.9013L521.085+84.9013L521.085+90.8784C519.779+91.8305+518.08+92.4092+516.137+92.4092C511.991+92.4092+509.339+89.5696+509.339+85.556C509.339+81.7816+511.991+78.8493+516.155+78.8493" opacity="1" fill="#918f90"/>
<path d="M-58+178.28M527.507+87.5535L531.055+87.5535L529.3+82.2295L529.261+82.2295L527.507+87.5535ZM527.675+79.0936L530.907+79.0936L535.612+92.1664L532.585+92.1664L531.784+89.7201L526.797+89.7201L525.993+92.1664L522.949+92.1664L527.675+79.0936" opacity="1" fill="#918f90"/>
<path d="M-58+178.28M537.7+79.0936L540.389+79.0936L546.216+87.6841L546.216+79.0936L548.907+79.0936L548.907+92.1664L546.216+92.1664L540.389+83.6133L540.389+92.1664L537.7+92.1664L537.7+79.0936" opacity="1" fill="#918f90"/>
<path d="M-58+178.28M552.857+88.7295C554.015+89.4399+555.377+89.9253+556.703+89.9253C558.104+89.9253+558.852+89.3451+558.852+88.5055C558.852+86.0587+551.792+87.7029+551.792+82.7535C551.792+80.6055+553.547+78.8493+556.591+78.8493C558.292+78.8493+559.823+79.28+561.28+79.9707L560.233+82.1936C559.076+81.6149+557.861+81.3347+556.703+81.3347C555.452+81.3347+554.705+81.9321+554.705+82.716C554.705+85.1253+561.765+83.4253+561.765+88.468C561.765+90.6721+560.084+92.4092+556.723+92.4092C554.761+92.4092+552.763+91.7363+551.512+90.9519L552.857+88.7295" opacity="1" fill="#918f90"/>
<path d="M-58+178.28M483.939+107.703C483.155+108.207+482.613+108.916+482.613+109.832C482.613+110.99+483.528+111.792+485.06+111.792C486.049+111.792+486.945+111.475+487.655+110.915C486.348+109.907+485.096+108.824+483.939+107.703ZM482.649+106.283C482.128+105.556+481.772+104.752+481.772+103.819C481.772+101.932+483.379+100.456+485.564+100.456C487.225+100.456+488.476+101.223+489.429+102.285L487.655+103.782C487.057+103.145+486.367+102.753+485.657+102.753C484.855+102.753+484.387+103.313+484.387+103.948C484.387+104.676+484.911+105.294+485.471+105.872C486.591+106.975+487.787+108.003+489.056+109.009C489.336+108.319+489.485+107.535+489.485+106.675L491.951+106.675C491.951+108.039+491.596+109.345+490.961+110.466C491.671+110.99+492.417+111.512+493.165+112.036L491.708+113.903C490.98+113.399+490.233+112.857+489.485+112.316C488.291+113.361+486.703+114.015+484.872+114.015C481.865+114.015+480.109+112.148+480.109+110.075C480.109+108.375+481.212+107.123+482.649+106.283" opacity="1" fill="#918f90"/>
<path d="M-58+178.28M503.801+103.201L499.485+103.201L499.485+100.699L510.935+100.699L510.935+103.201L506.621+103.201L506.621+113.773L503.801+113.773L503.801+103.201" opacity="1" fill="#918f90"/>
<path d="M-58+178.28M513.107+100.699L515.927+100.699L515.927+113.773L513.107+113.773L513.107+100.699" opacity="1" fill="#918f90"/>
<path d="M-58+178.28M519.845+110.336C521.003+111.047+522.365+111.532+523.692+111.532C525.092+111.532+525.84+110.952+525.84+110.112C525.84+107.665+518.78+109.309+518.78+104.36C518.78+102.212+520.535+100.456+523.58+100.456C525.28+100.456+526.811+100.887+528.268+101.576L527.221+103.799C526.064+103.221+524.851+102.94+523.692+102.94C522.44+102.94+521.695+103.537+521.695+104.323C521.695+106.731+528.753+105.032+528.753+110.075C528.753+112.278+527.073+114.015+523.711+114.015C521.751+114.015+519.751+113.343+518.5+112.559L519.845+110.336" opacity="1" fill="#918f90"/>
<path d="M-58+178.28M531.932+110.336C533.089+111.047+534.453+111.532+535.78+111.532C537.181+111.532+537.927+110.952+537.927+110.112C537.927+107.665+530.867+109.309+530.867+104.36C530.867+102.212+532.624+100.456+535.668+100.456C537.367+100.456+538.899+100.887+540.356+101.576L539.309+103.799C538.152+103.221+536.937+102.94+535.78+102.94C534.528+102.94+533.781+103.537+533.781+104.323C533.781+106.731+540.841+105.032+540.841+110.075C540.841+112.278+539.16+114.015+535.799+114.015C533.837+114.015+531.839+113.343+530.587+112.559L531.932+110.336" opacity="1" fill="#918f90"/>
<path d="M-58+178.28M543.349+100.699L546.188+100.699L546.188+108.804C546.188+110.578+547.289+111.588+548.876+111.588C550.427+111.588+551.548+110.578+551.548+108.804L551.548+100.699L554.387+100.699L554.387+108.804C554.387+112.316+552.088+114.015+548.876+114.015C545.645+114.015+543.349+112.316+543.349+108.804L543.349+100.699" opacity="1" fill="#918f90"/>
<path d="M-58+178.28M557.621+100.699L567.145+100.699L567.145+103.165L560.441+103.165L560.441+106.04L566.417+106.04L566.417+108.225L560.441+108.225L560.441+111.307L567.221+111.307L567.221+113.773L557.621+113.773L557.621+100.699" opacity="1" fill="#918f90"/>
<path d="M-58+178.28M570.701+110.336C571.86+111.047+573.223+111.532+574.548+111.532C575.949+111.532+576.696+110.952+576.696+110.112C576.696+107.665+569.637+109.309+569.637+104.36C569.637+102.212+571.392+100.456+574.436+100.456C576.137+100.456+577.668+100.887+579.125+101.576L578.079+103.799C576.92+103.221+575.707+102.94+574.548+102.94C573.297+102.94+572.551+103.537+572.551+104.323C572.551+106.731+579.611+105.032+579.611+110.075C579.611+112.278+577.929+114.015+574.568+114.015C572.607+114.015+570.608+113.343+569.357+112.559L570.701+110.336" opacity="1" fill="#918f90"/>
<path d="M-58+178.28M284.177+6.97867C288.229+6.97867+291.739+8.31601+294.787+10.7373L291.321+15.0813C289.316+13.452+287.144+12.408+284.263+12.408C278.875+12.408+275.324+16.168+275.324+21.9733C275.324+27.988+278.789+31.8733+284.263+31.8733C287.227+31.8733+289.609+30.7867+291.529+28.8653L295.288+32.8747C292.156+35.7987+288.523+37.3013+283.969+37.3013C275.072+37.3013+268.933+30.8707+268.933+21.9733C268.933+13.3267+275.24+6.97867+284.177+6.97867" opacity="1" fill="#444142"/>
<path d="M-58+178.28M306.888+32.832C308.684+32.832+310.104+32.04+311.065+30.9107L311.065+26.6933C307.597+26.9013+304.34+27.7787+304.34+30.536C304.34+31.9147+305.343+32.832+306.888+32.832ZM311.065+23.268L311.065+21.3467C311.065+19.7173+310.104+18.7573+308.016+18.7573C305.885+18.7573+303.631+19.592+300.832+20.9707L298.66+16.376C301.708+14.8307+305.217+13.7867+308.307+13.7867C314.74+13.7867+317.288+16.9613+317.288+21.556L317.288+30.8707C317.288+32.0813+317.956+32.5827+319.084+32.5827L319.084+36.884C314.781+36.884+313.028+36.2573+311.733+34.128C309.895+36.1333+307.807+37.3013+304.757+37.3013C300.873+37.3013+298.116+34.88+298.116+31.3293C298.116+26.4413+302.669+23.8533+311.065+23.268" opacity="1" fill="#444142"/>
<path d="M-58+178.28M322.732+14.288L328.663+14.288L328.956+16.8773C330.584+15.1653+332.923+13.744+335.721+13.744C340.776+13.744+342.864+16.8347+342.864+21.8893L342.864+36.7587L336.64+36.7587L336.64+21.764C336.64+19.7587+335.805+18.4653+333.757+18.4653C331.963+18.4653+330.333+19.384+328.997+21.012L328.997+36.7587L322.732+36.7587L322.732+14.288" opacity="1" fill="#444142"/>
<path d="M-58+178.28M355.429+32.832C357.225+32.832+358.645+32.04+359.607+30.9107L359.607+26.6933C356.139+26.9013+352.881+27.7787+352.881+30.536C352.881+31.9147+353.884+32.832+355.429+32.832ZM359.607+23.268L359.607+21.3467C359.607+19.7173+358.645+18.7573+356.557+18.7573C354.427+18.7573+352.172+19.592+349.372+20.9707L347.2+16.376C350.251+14.8307+353.759+13.7867+356.849+13.7867C363.281+13.7867+365.829+16.9613+365.829+21.556L365.829+30.8707C365.829+32.0813+366.497+32.5827+367.627+32.5827L367.627+36.884C363.323+36.884+361.569+36.2573+360.275+34.128C358.436+36.1333+356.348+37.3013+353.3+37.3013C349.415+37.3013+346.657+34.88+346.657+31.3293C346.657+26.4413+351.211+23.8533+359.607+23.268" opacity="1" fill="#444142"/>
<path d="M-58+178.28M385.219+30.3267L385.219+20.8453C383.883+19.384+382.42+18.5893+380.625+18.5893C377.743+18.5893+376.323+20.9293+376.323+25.2733C376.323+29.6587+377.743+32.4987+380.625+32.4987C382.463+32.4987+383.841+31.8307+385.219+30.3267ZM370.099+25.2733C370.099+17.6707+373.608+13.7867+378.787+13.7867C381.251+13.7867+383.548+14.9147+385.219+16.7933L385.219+5.224L391.443+5.224L391.443+36.7587L385.929+36.7587L385.553+34.128C383.8+35.9653+381.669+37.3013+378.661+37.3013C373.649+37.3013+370.099+33.168+370.099+25.2733" opacity="1" fill="#444142"/>
<path d="M-58+178.28M415.492+32.832C417.289+32.832+418.708+32.04+419.669+30.9107L419.669+26.6933C416.203+26.9013+412.944+27.7787+412.944+30.536C412.944+31.9147+413.947+32.832+415.492+32.832ZM419.669+23.268L419.669+21.3467C419.669+19.7173+418.708+18.7573+416.62+18.7573C414.489+18.7573+412.235+19.592+409.436+20.9707L407.264+16.376C410.313+14.8307+413.821+13.7867+416.913+13.7867C423.345+13.7867+425.893+16.9613+425.893+21.556L425.893+30.8707C425.893+32.0813+426.561+32.5827+427.689+32.5827L427.689+36.884C423.387+36.884+421.633+36.2573+420.337+34.128C418.5+36.1333+416.412+37.3013+413.361+37.3013C409.477+37.3013+406.721+34.88+406.721+31.3293C406.721+26.4413+411.273+23.8533+419.669+23.268" opacity="1" fill="#444142"/>
<path d="M-58+178.28M431.336+14.288L437.267+14.288L437.56+16.8773C439.189+15.1653+441.528+13.744+444.325+13.744C449.38+13.744+451.469+16.8347+451.469+21.8893L451.469+36.7587L445.245+36.7587L445.245+21.764C445.245+19.7587+444.409+18.4653+442.361+18.4653C440.567+18.4653+438.937+19.384+437.601+21.012L437.601+36.7587L431.336+36.7587L431.336+14.288" opacity="1" fill="#444142"/>
<path d="M-58+178.28M282.675+70.2117C285.432+70.2117+287.227+68.9592+287.227+66.4524C287.227+64.0305+285.432+62.8185+282.675+62.8185L276.327+62.8185L276.327+70.2117L282.675+70.2117ZM281.756+58.0993C284.637+58.0993+286.141+56.6368+286.141+54.5065C286.141+52.5019+284.637+51.0821+281.756+51.0821L276.327+51.0821L276.327+58.0993L281.756+58.0993ZM270.06+46.0279L282.173+46.0279C289.232+46.0279+292.491+49.2857+292.491+53.8805C292.491+56.9289+290.82+58.9341+288.105+60.1035C291.321+61.106+293.576+63.3196+293.576+66.8707C293.576+72.3003+289.316+75.2664+282.759+75.2664L270.06+75.2664L270.06+46.0279" opacity="1" fill="#444142"/>
<path d="M-58+178.28M297.988+43.7307L304.252+43.7307L304.252+75.2664L297.988+75.2664L297.988+43.7307" opacity="1" fill="#444142"/>
<path d="M-58+178.28M319.529+71.0893C322.663+71.0893+324.459+68.2493+324.459+63.8628C324.459+59.7279+322.536+57.0128+319.529+57.0128C316.48+57.0128+314.517+59.7279+314.517+63.8628C314.517+68.2493+316.272+71.0893+319.529+71.0893ZM319.529+52.2931C325.963+52.2931+330.807+56.8873+330.807+63.8212C330.807+71.2144+326.253+75.8092+319.529+75.8092C312.763+75.8092+308.211+71.2144+308.211+63.8212C308.211+56.8873+313.056+52.2931+319.529+52.2931" opacity="1" fill="#444142"/>
<path d="M-58+178.28M344.935+71.0893C348.068+71.0893+349.863+68.2493+349.863+63.8628C349.863+59.7279+347.941+57.0128+344.935+57.0128C341.885+57.0128+339.921+59.7279+339.921+63.8628C339.921+68.2493+341.677+71.0893+344.935+71.0893ZM344.935+52.2931C351.367+52.2931+356.212+56.8873+356.212+63.8212C356.212+71.2144+351.659+75.8092+344.935+75.8092C338.168+75.8092+333.616+71.2144+333.616+63.8212C333.616+56.8873+338.461+52.2931+344.935+52.2931" opacity="1" fill="#444142"/>
<path d="M-58+178.28M374.336+68.8341L374.336+59.3513C373+57.8899+371.537+57.0961+369.743+57.0961C366.86+57.0961+365.44+59.4357+365.44+63.7795C365.44+68.1649+366.86+71.006+369.743+71.006C371.58+71.006+372.959+70.3379+374.336+68.8341ZM359.216+63.7795C359.216+56.1779+362.725+52.2931+367.904+52.2931C370.368+52.2931+372.665+53.4207+374.336+55.3003L374.336+43.7307L380.56+43.7307L380.56+75.2664L375.047+75.2664L374.671+72.6347C372.917+74.4721+370.787+75.8092+367.779+75.8092C362.767+75.8092+359.216+71.6737+359.216+63.7795" opacity="1" fill="#444142"/>
<path d="M-58+178.28M271.815+106.087C274.404+107.673+277.453+108.76+280.419+108.76C283.552+108.76+285.223+107.465+285.223+105.585C285.223+100.115+269.435+103.789+269.435+92.7212C269.435+87.9175+273.36+83.992+280.168+83.992C283.969+83.992+287.393+84.9519+290.653+86.4988L288.313+91.468C285.724+90.1732+283.008+89.5467+280.419+89.5467C277.62+89.5467+275.949+90.8841+275.949+92.6373C275.949+98.0253+291.739+94.2253+291.739+105.503C291.739+110.432+287.98+114.316+280.461+114.316C276.075+114.316+271.607+112.812+268.808+111.059L271.815+106.087" opacity="1" fill="#444142"/>
<path d="M-58+178.28M301.221+100.197L310.117+100.197C310.117+97.4415+309.031+95.2696+306.148+95.2696C303.727+95.2696+301.805+96.9399+301.221+100.197ZM305.981+90.7587C312.456+90.7587+316.048+94.9773+316.048+101.033C316.048+101.911+315.923+103.08+315.799+103.748L301.096+103.748C301.388+107.507+303.184+109.344+306.525+109.344C308.739+109.344+310.827+108.594+312.707+107.424L315.339+111.349C312.583+113.313+309.364+114.316+306.024+114.316C299.425+114.316+294.747+109.931+294.747+102.412C294.747+95.2269+299.76+90.7587+305.981+90.7587" opacity="1" fill="#444142"/>
<path d="M-58+178.28M319.988+91.3013L325.795+91.3013L326.212+94.768C327.924+91.7612+330.096+90.6748+332.601+90.6748C333.645+90.6748+334.565+90.8415+335.36+91.092L334.44+96.856C333.645+96.5639+332.687+96.3545+331.473+96.3545C329.177+96.3545+327.632+97.7331+326.253+100.324L326.253+113.773L319.988+113.773L319.988+91.3013" opacity="1" fill="#444142"/>
<path d="M-58+178.28M337.295+91.3013L343.435+91.3013L348.155+107.005L348.239+107.005L352.959+91.3013L358.848+91.3013L351.413+113.773L344.729+113.773L337.295+91.3013" opacity="1" fill="#444142"/>
<path d="M-58+178.28M383.276+90.7997C385.991+90.7997+388.791+91.6347+391.253+93.5988L388.121+97.6092C386.868+96.6065+385.323+95.8535+383.444+95.8535C380.561+95.8535+378.181+98.1519+378.181+102.412C378.181+106.839+380.477+109.22+383.444+109.22C385.448+109.22+386.785+108.552+388.121+107.383L391.547+111.059C389.083+113.229+386.492+114.316+383.276+114.316C376.76+114.316+371.873+109.845+371.873+102.412C371.873+95.2269+376.719+90.7997+383.276+90.7997" opacity="1" fill="#444142"/>
<path d="M-58+178.28M399.397+100.197L408.293+100.197C408.293+97.4415+407.207+95.2696+404.325+95.2696C401.903+95.2696+399.981+96.9399+399.397+100.197ZM404.159+90.7587C410.633+90.7587+414.224+94.9773+414.224+101.033C414.224+101.911+414.099+103.08+413.973+103.748L399.272+103.748C399.564+107.507+401.36+109.344+404.701+109.344C406.916+109.344+409.004+108.594+410.883+107.424L413.515+111.349C410.757+113.313+407.541+114.316+404.2+114.316C397.6+114.316+392.923+109.931+392.923+102.412C392.923+95.2269+397.935+90.7587+404.159+90.7587" opacity="1" fill="#444142"/>
<path d="M-58+178.28M419.18+107.507C421.352+108.719+423.775+109.512+426.072+109.512C428.16+109.512+429.413+108.887+429.413+107.465C429.413+103.789+417.301+106.213+417.301+97.8175C417.301+93.2227+421.435+90.7997+426.239+90.7997C428.661+90.7997+431.417+91.3013+434.676+92.8055L432.42+97.1081C430.249+96.0628+427.825+95.5612+426.364+95.5612C424.527+95.5612+423.357+96.1879+423.357+97.5655C423.357+101.2+435.385+98.6107+435.385+107.089C435.385+111.768+431.501+114.316+426.196+114.316C422.772+114.316+419.681+113.439+416.8+111.851L419.18+107.507" opacity="1" fill="#444142"/>
<path d="M-58+178.28M396.476+5.22534L402.743+5.22534L402.743+10.5293L396.476+10.5293L396.476+5.22534" opacity="1" fill="#444142"/>
<path d="M-58+178.28M396.476+14.288L402.743+14.288L402.743+36.7587L396.476+36.7587L396.476+14.288" opacity="1" fill="#444142"/>
<path d="M-58+178.28M361.695+82.2388L367.96+82.2388L367.96+87.544L361.695+87.544L361.695+82.2388" opacity="1" fill="#444142"/>
<path d="M-58+178.28M361.695+91.3013L367.96+91.3013L367.96+113.773L361.695+113.773L361.695+91.3013" opacity="1" fill="#444142"/>
</g>
</g>
</svg>
